# xmcd CD database file
#
# Track frame offsets:
#	150
#	15158
#	33295
#	46911
#	61599
#	78948
#	96972
#	114028
#	129830
#	141729
#	161808
#	178755
#
# Disc length: 2646 seconds
#
# Revision: 1
# Processed by: cddbd v1.5.2PL0 Copyright (c) Steve Scherf et al.
# Submitted via: CDex 1.70beta2
#
DISCID=8c0a540c
DTITLE=Jon Fratelli - Psycho Jukebox
DYEAR=2011
DGENRE=Rock
TTITLE0=Tell Me Honey
TTITLE1=Daddy Won't Pay Your Bill
TTITLE2=Santo Domingo
TTITLE3=Rhythm Doesn't Make You a Dancer
TTITLE4=The Band Played Just For Me
TTITLE5=Magic and Mayhem
TTITLE6=She's My Shaker
TTITLE7=Cavemen
TTITLE8=Baby We're Refugees
TTITLE9=Oh Shangri La
TTITLE10=Give Me My Heart Back Macguire
TTITLE11=Sometimes You Just Can't Win
EXTD=YEAR: 2011
EXTT0=
EXTT1=
EXTT2=
EXTT3=
EXTT4=
EXTT5=
EXTT6=
EXTT7=
EXTT8=
EXTT9=
EXTT10=
EXTT11=
PLAYORDER=
